<?xml version="1.0" encoding="UTF-8" standalone="no"?>
<svg
   width="195"
   height="100"
   viewBox="-4 8 195 100"
   fill="none"
   version="1.1"
   id="svg84"
   sodipodi:docname="BoardPreview.svg"
   inkscape:version="1.2.2 (732a01da63, 2022-12-09)"
   inkscape:export-filename="BoardPreview.svg"
   inkscape:export-xdpi="96"
   inkscape:export-ydpi="96"
   xmlns:inkscape="http://www.inkscape.org/namespaces/inkscape"
   xmlns:sodipodi="http://sodipodi.sourceforge.net/DTD/sodipodi-0.dtd"
   xmlns="http://www.w3.org/2000/svg"
   xmlns:svg="http://www.w3.org/2000/svg">
  <defs
     id="defs88" />
  <sodipodi:namedview
     id="namedview86"
     pagecolor="#ffffff"
     bordercolor="#000000"
     borderopacity="0.25"
     inkscape:showpageshadow="2"
     inkscape:pageopacity="0.0"
     inkscape:pagecheckerboard="0"
     inkscape:deskcolor="#d1d1d1"
     showgrid="false"
     inkscape:zoom="6.5053763"
     inkscape:cx="82.16281"
     inkscape:cy="41.504132"
     inkscape:window-width="1920"
     inkscape:window-height="1009"
     inkscape:window-x="-8"
     inkscape:window-y="-8"
     inkscape:window-maximized="1"
     inkscape:current-layer="svg84" />
  <rect
     x="64.418503"
     y="14.3774"
     width="57.872799"
     height="54.855202"
     rx="1.31379"
     fill="#e3e3e3"
     id="rect2" />
  <rect
     x="67.979897"
     y="27.5364"
     width="51.046799"
     height="12.574"
     rx="1.31379"
     fill="#ffffff"
     id="rect4" />
  <mask
     id="mask0"
     mask-type="alpha"
     maskUnits="userSpaceOnUse"
     x="67"
     y="27"
     width="53"
     height="14">
    <rect
       x="67.979897"
       y="27.5364"
       width="51.046799"
       height="12.574"
       rx="1.31379"
       fill="#ffffff"
       id="rect6" />
  </mask>
  <g
     mask="url(#mask0)"
     id="g11">
    <path
       fill-rule="evenodd"
       clip-rule="evenodd"
       d="m 70.651,32.5795 c 0,-0.3628 0.2941,-0.6569 0.6569,-0.6569 h 9.0736 c 0.3628,0 0.6569,0.2941 0.6569,0.6569 v 2.4877 c 0,0.3628 -0.2941,0.6569 -0.6569,0.6569 h -9.0736 c -0.3628,0 -0.6569,-0.2941 -0.6569,-0.6569 z"
       fill="#e4e4e4"
       id="path9" />
  </g>
  <rect
     x="67.979897"
     y="43.0345"
     width="51.046799"
     height="22.808701"
     rx="1.31379"
     fill="#ffffff"
     id="rect13" />
  <mask
     id="mask1"
     mask-type="alpha"
     maskUnits="userSpaceOnUse"
     x="67"
     y="43"
     width="53"
     height="23">
    <rect
       x="67.979897"
       y="43.0345"
       width="51.046799"
       height="22.808701"
       rx="1.31379"
       fill="#ffffff"
       id="rect15" />
  </mask>
  <g
     mask="url(#mask1)"
     id="g22">
    <rect
       x="70.651001"
       y="47.420799"
       width="38.581902"
       height="3.80145"
       rx="0.656896"
       fill="#e4e4e4"
       id="rect18" />
    <rect
       x="70.651001"
       y="54.1465"
       width="14.2456"
       height="3.80145"
       rx="0.656896"
       fill="#e4e4e4"
       id="rect20" />
  </g>
  <path
     fill-rule="evenodd"
     clip-rule="evenodd"
     d="m 68.2767,20.0055 c 0,-0.3628 0.2941,-0.6569 0.6569,-0.6569 h 21.8353 c 0.3628,0 0.6569,0.2941 0.6569,0.6569 v 3.0725 c 0,0.3628 -0.2941,0.6569 -0.6569,0.6569 H 68.9336 c -0.3628,0 -0.6569,-0.2941 -0.6569,-0.6569 z"
     fill="#ffffff"
     id="path24" />
  <rect
     x="127.93"
     y="14.3774"
     width="57.872799"
     height="84.216797"
     rx="1.31379"
     fill="#e3e3e3"
     id="rect26" />
  <rect
     x="131.492"
     y="27.828699"
     width="51.046799"
     height="35.382702"
     rx="1.31379"
     fill="#ffffff"
     id="rect28" />
  <mask
     id="mask2"
     mask-type="alpha"
     maskUnits="userSpaceOnUse"
     x="131"
     y="27"
     width="52"
     height="37">
    <rect
       x="131.492"
       y="27.828699"
       width="51.046799"
       height="35.382702"
       rx="1.31379"
       fill="#ffffff"
       id="rect30" />
  </mask>
  <g
     mask="url(#mask2)"
     id="g37">
    <rect
       x="131.50999"
       y="26.6929"
       width="55.386101"
       height="27.061199"
       fill="#f1f1f1"
       id="rect33" />
    <path
       fill-rule="evenodd"
       clip-rule="evenodd"
       d="m 134.163,57.1427 c 0,-0.3628 0.294,-0.6569 0.657,-0.6569 h 10.854 c 0.363,0 0.657,0.2941 0.657,0.6569 v 2.4877 c 0,0.3628 -0.294,0.6569 -0.657,0.6569 H 134.82 c -0.363,0 -0.657,-0.2941 -0.657,-0.6569 z"
       fill="#e4e4e4"
       id="path35" />
  </g>
  <rect
     x="131.19501"
     y="67.012901"
     width="51.046799"
     height="11.4044"
     rx="1.31379"
     fill="#ffffff"
     id="rect39" />
  <mask
     id="mask3"
     mask-type="alpha"
     maskUnits="userSpaceOnUse"
     x="131"
     y="67"
     width="52"
     height="12">
    <rect
       x="131.19501"
       y="67.012901"
       width="51.046799"
       height="11.4044"
       rx="1.31379"
       fill="#ffffff"
       id="rect41" />
  </mask>
  <rect
     x="133.866"
     y="70.814301"
     width="19.290899"
     height="3.80145"
     rx="0.656896"
     fill="#e4e4e4"
     id="rect46" />
  <rect
     x="131.19501"
     y="81.9263"
     width="51.046799"
     height="11.4044"
     rx="1.31379"
     fill="#ffffff"
     id="rect48" />
  <mask
     id="mask4"
     mask-type="alpha"
     maskUnits="userSpaceOnUse"
     x="131"
     y="81"
     width="52"
     height="13">
    <rect
       x="131.19501"
       y="81.9263"
       width="51.046799"
       height="11.4044"
       rx="1.31379"
       fill="#ffffff"
       id="rect50" />
  </mask>
  <rect
     x="133.866"
     y="85.727699"
     width="13.3553"
     height="3.80145"
     rx="0.656896"
     fill="#e4e4e4"
     id="rect55" />
  <path
     fill-rule="evenodd"
     clip-rule="evenodd"
     d="m 131.788,20.0055 c 0,-0.3628 0.294,-0.6569 0.657,-0.6569 h 13.822 c 0.363,0 0.657,0.2941 0.657,0.6569 v 3.0725 c 0,0.3628 -0.294,0.6569 -0.657,0.6569 h -13.822 c -0.363,0 -0.657,-0.2941 -0.657,-0.6569 z"
     fill="#ffffff"
     id="path57" />
  <rect
     x="0.90685999"
     y="14.3774"
     width="57.872799"
     height="85.971298"
     rx="1.31379"
     fill="#e3e3e3"
     id="rect59" />
  <rect
     x="4.4682598"
     y="27.828699"
     width="51.046799"
     height="12.2816"
     rx="1.31379"
     fill="#ffffff"
     id="rect61" />
  <rect
     x="7.1392798"
     y="31.9226"
     width="25.8202"
     height="3.80145"
     rx="0.656896"
     fill="#e4e4e4"
     id="rect63" />
  <rect
     x="4.4682598"
     y="43.9119"
     width="51.046799"
     height="12.2816"
     rx="1.31379"
     fill="#ffffff"
     id="rect65" />
  <rect
     x="7.1392798"
     y="48.005699"
     width="19.5877"
     height="3.80145"
     rx="0.656896"
     fill="#e4e4e4"
     id="rect67" />
  <rect
     x="6.8424702"
     y="87.774696"
     width="13.3553"
     height="3.80145"
     rx="0.656896"
     fill="#e4e4e4"
     id="rect69" />
  <rect
     x="4.3970299"
     y="59.690701"
     width="51.046799"
     height="35.382702"
     rx="1.31379"
     fill="#ffffff"
     id="rect71" />
  <mask
     id="mask5"
     mask-type="alpha"
     maskUnits="userSpaceOnUse"
     x="4"
     y="59"
     width="52"
     height="37">
    <rect
       x="4.3970299"
       y="59.690701"
       width="51.046799"
       height="35.382702"
       rx="1.31379"
       fill="#ffffff"
       id="rect73" />
  </mask>
  <g
     mask="url(#mask5)"
     id="g80">
    <rect
       x="4.4154701"
       y="58.554798"
       width="55.386101"
       height="27.061199"
       fill="#f1f1f1"
       id="rect76" />
    <rect
       x="7.0680499"
       y="88.347801"
       width="12.1681"
       height="3.80145"
       rx="0.656896"
       fill="#e4e4e4"
       id="rect78" />
  </g>
  <rect
     x="4.7650099"
     y="19.3486"
     width="14.2456"
     height="4.3862901"
     rx="0.656896"
     fill="#ffffff"
     id="rect82" />
</svg>
