<?xml version="1.0" encoding="UTF-8" standalone="no"?>
<svg
   width="195"
   height="100"
   viewBox="-4 8 195 100"
   fill="none"
   version="1.1"
   id="svg84"
   sodipodi:docname="BoardPreview.svg"
   inkscape:version="1.2.2 (732a01da63, 2022-12-09)"
   inkscape:export-filename="BoardPreview.svg"
   inkscape:export-xdpi="96"
   inkscape:export-ydpi="96"
   xmlns:inkscape="http://www.inkscape.org/namespaces/inkscape"
   xmlns:sodipodi="http://sodipodi.sourceforge.net/DTD/sodipodi-0.dtd"
   xmlns="http://www.w3.org/2000/svg"
   xmlns:svg="http://www.w3.org/2000/svg">
  <defs
     id="defs88" />
  <sodipodi:namedview
     id="namedview86"
     pagecolor="#ffffff"
     bordercolor="#000000"
     borderopacity="0.25"
     inkscape:showpageshadow="2"
     inkscape:pageopacity="0.0"
     inkscape:pagecheckerboard="0"
     inkscape:deskcolor="#d1d1d1"
     showgrid="false"
     inkscape:zoom="8"
     inkscape:cx="37.9375"
     inkscape:cy="37.75"
     inkscape:window-width="2560"
     inkscape:window-height="1494"
     inkscape:window-x="-11"
     inkscape:window-y="-11"
     inkscape:window-maximized="1"
     inkscape:current-layer="svg84" />
  <rect
     x="0.90700001"
     y="14.3774"
     width="57.872799"
     height="54.855202"
     rx="1.31379"
     fill="#e3e3e3"
     id="rect2" />
  <rect
     x="4.4683938"
     y="27.5364"
     width="51.046799"
     height="12.574"
     rx="1.31379"
     fill="#ffffff"
     id="rect4" />
  <mask
     id="mask0"
     mask-type="alpha"
     maskUnits="userSpaceOnUse"
     x="67"
     y="27"
     width="53"
     height="14">
    <rect
       x="67.979897"
       y="27.5364"
       width="51.046799"
       height="12.574"
       rx="1.31379"
       fill="#ffffff"
       id="rect6" />
  </mask>
  <g
     mask="url(#mask0)"
     id="g11"
     transform="translate(-63.511503)">
    <path
       fill-rule="evenodd"
       clip-rule="evenodd"
       d="m 70.651,32.5795 c 0,-0.3628 0.2941,-0.6569 0.6569,-0.6569 h 9.0736 c 0.3628,0 0.6569,0.2941 0.6569,0.6569 v 2.4877 c 0,0.3628 -0.2941,0.6569 -0.6569,0.6569 h -9.0736 c -0.3628,0 -0.6569,-0.2941 -0.6569,-0.6569 z"
       fill="#e4e4e4"
       id="path9" />
  </g>
  <rect
     x="4.4683938"
     y="43.0345"
     width="51.046799"
     height="22.808701"
     rx="1.31379"
     fill="#ffffff"
     id="rect13" />
  <mask
     id="mask1"
     mask-type="alpha"
     maskUnits="userSpaceOnUse"
     x="67"
     y="43"
     width="53"
     height="23">
    <rect
       x="67.979897"
       y="43.0345"
       width="51.046799"
       height="22.808701"
       rx="1.31379"
       fill="#ffffff"
       id="rect15" />
  </mask>
  <g
     mask="url(#mask1)"
     id="g22"
     transform="translate(-63.511503)">
    <rect
       x="70.651001"
       y="47.420799"
       width="38.581902"
       height="3.80145"
       rx="0.656896"
       fill="#e4e4e4"
       id="rect18" />
    <rect
       x="70.651001"
       y="54.1465"
       width="14.2456"
       height="3.80145"
       rx="0.656896"
       fill="#e4e4e4"
       id="rect20" />
  </g>
  <path
     fill-rule="evenodd"
     clip-rule="evenodd"
     d="m 4.7651972,20.0055 c 0,-0.3628 0.2941,-0.6569 0.6569,-0.6569 H 27.257397 c 0.3628,0 0.6569,0.2941 0.6569,0.6569 v 3.0725 c 0,0.3628 -0.2941,0.6569 -0.6569,0.6569 H 5.4220972 c -0.3628,0 -0.6569,-0.2941 -0.6569,-0.6569 z"
     fill="#ffffff"
     id="path24" />
  <mask
     id="mask2"
     mask-type="alpha"
     maskUnits="userSpaceOnUse"
     x="131"
     y="27"
     width="52"
     height="37">
    <rect
       x="131.492"
       y="27.828699"
       width="51.046799"
       height="35.382702"
       rx="1.31379"
       fill="#ffffff"
       id="rect30" />
  </mask>
  <mask
     id="mask3"
     mask-type="alpha"
     maskUnits="userSpaceOnUse"
     x="131"
     y="67"
     width="52"
     height="12">
    <rect
       x="131.19501"
       y="67.012901"
       width="51.046799"
       height="11.4044"
       rx="1.31379"
       fill="#ffffff"
       id="rect41" />
  </mask>
  <mask
     id="mask4"
     mask-type="alpha"
     maskUnits="userSpaceOnUse"
     x="131"
     y="81"
     width="52"
     height="13">
    <rect
       x="131.19501"
       y="81.9263"
       width="51.046799"
       height="11.4044"
       rx="1.31379"
       fill="#ffffff"
       id="rect50" />
  </mask>
  <mask
     id="mask5"
     mask-type="alpha"
     maskUnits="userSpaceOnUse"
     x="4"
     y="59"
     width="52"
     height="37">
    <rect
       x="4.3970299"
       y="59.690701"
       width="51.046799"
       height="35.382702"
       rx="1.31379"
       fill="#ffffff"
       id="rect73" />
  </mask>
</svg>
